<?xml version="1.0" encoding="UTF-8" standalone="no"?>
<svg
   xmlns:dc="http://purl.org/dc/elements/1.1/"
   xmlns:cc="http://creativecommons.org/ns#"
   xmlns:rdf="http://www.w3.org/1999/02/22-rdf-syntax-ns#"
   xmlns:svg="http://www.w3.org/2000/svg"
   xmlns="http://www.w3.org/2000/svg"
   xmlns:sodipodi="http://sodipodi.sourceforge.net/DTD/sodipodi-0.dtd"
   xmlns:inkscape="http://www.inkscape.org/namespaces/inkscape"
   width="595.275574pt"
   height="841.889771pt"
   viewBox="0 0 595.275574 841.889771"
   version="1.2"
   id="svg69"
   sodipodi:docname="InnerBox_ReadyToCut.svg"
   inkscape:version="0.92.3 (2405546, 2018-03-11)">
  <metadata
     id="metadata75">
    <rdf:RDF>
      <cc:Work
         rdf:about="">
        <dc:format>image/svg+xml</dc:format>
        <dc:type
           rdf:resource="http://purl.org/dc/dcmitype/StillImage" />
        <dc:title></dc:title>
      </cc:Work>
    </rdf:RDF>
  </metadata>
  <defs
     id="defs73" />
  <sodipodi:namedview
     pagecolor="#ffffff"
     bordercolor="#666666"
     borderopacity="1"
     objecttolerance="10"
     gridtolerance="10"
     guidetolerance="10"
     inkscape:pageopacity="0"
     inkscape:pageshadow="2"
     inkscape:window-width="1280"
     inkscape:window-height="961"
     id="namedview71"
     showgrid="false"
     inkscape:zoom="0.64222147"
     inkscape:cx="249.41947"
     inkscape:cy="519.91039"
     inkscape:window-x="-8"
     inkscape:window-y="25"
     inkscape:window-maximized="1"
     inkscape:current-layer="svg69" />
  <g
     id="g3867"
     transform="translate(-8.1747503,-21.020786)">
    <path
       style="fill:#ff00ff;stroke:#00ff00;stroke-width:0.072;stroke-linecap:butt;stroke-linejoin:miter;stroke-miterlimit:9.25;stroke-opacity:1"
       d="m 487.8125,114.16016 v 9 h -24 v 13.15625 h 9 v 22.15234 h -9 V 180.625 h 9 v 22.15234 h -9 v 22.15625 h 9 v 22.15235 h -9 v 22.15234 h 9 v 22.15625 h -9 v 29.78906 h 9 v 8.97657 l 54,54 v 9 h 9 v -270 h -24 v -9 z m 0,0"
       id="path4"
       inkscape:connector-curvature="0" />
    <path
       style="fill:#800000;stroke:#00ff00;stroke-width:0.072;stroke-linecap:butt;stroke-linejoin:miter;stroke-miterlimit:9.25;stroke-opacity:1"
       d="m 153.60938,114.16016 h 22.80078 v 9 h 22.80078 v -9 h 22.80078 v 9 h 22.80078 v -9 h 22.79688 v 9 h 22.80078 v -9 h 22.80078 v 9 h 22.80078 v -9 h 22.80078 v 9 h 22.79688 v -9 h 22.80078 v 9 h 22.80078 v -9 h 22.80078 v 9 h 22.80078 v -24 h -9 v -24 h 9 v -24 h -333 v 24 h -9 v 24 h 9 v 24 h 13.79688 z m 0,0"
       id="path6"
       inkscape:connector-curvature="0" />
    <path
       style="fill:#ff00ff;stroke:#00ff00;stroke-width:0.072;stroke-linecap:butt;stroke-linejoin:miter;stroke-miterlimit:9.25;stroke-opacity:1"
       d="m 67.8125,114.16016 v 279 h 9 v -9 l 54,-54 v -9.05469 h 9 v -29.71484 h -9 v -22.15235 h 9 v -22.15234 h -9 v -22.15625 h 9 v -22.15234 h -9 V 180.6211 h 9 v -22.15235 h -9 V 136.3125 h 9 V 114.25 l -12.80469,-0.0898 H 115.8125 v 9 h -24 v -9 z m 0,0"
       id="path8"
       inkscape:connector-curvature="0" />
    <path
       style="fill:#0000ff;stroke:#00ff00;stroke-width:0.072;stroke-linecap:butt;stroke-linejoin:miter;stroke-miterlimit:9.25;stroke-opacity:1"
       d="m 153.61328,114.16016 v 9 H 139.8125 v 13.15625 h -9 v 22.15234 h 9 v 22.15235 h -9 v 22.15625 h 9 v 22.15234 h -9 v 22.15234 h 9 v 22.15625 h -9 v 22.15235 h 9 v 29.80078 h 324 v -29.79688 h 9 v -22.15625 h -9 v -22.15625 h 9 v -22.15234 h -9 v -22.15234 h 9 V 180.6211 h -9 v -22.15235 h 9 v -22.15234 h -9 v -13.15625 h -13.80078 v -9 h -22.80078 v 9 h -22.79688 v -9 h -22.80078 v 9 H 358.8125 v -9 h -22.80078 v 9 h -22.80078 v -9 h -22.79688 v 9 h -22.80078 v -9 H 244.8125 v 9 h -22.80078 v -9 h -22.80078 v 9 h -22.79688 v -9 z m 0,0"
       id="path2"
       inkscape:connector-curvature="0" />
    <path
       style="fill:#ffffff;stroke:#00ff00;stroke-width:0.072;stroke-linecap:butt;stroke-linejoin:round;stroke-miterlimit:9.25;stroke-opacity:1"
       d="m 314.80469,185.41797 h 34.01562 v 64.48828 h -34.01562 z m 0,0"
       id="path16"
       inkscape:connector-curvature="0" />
    <path
       style="fill:#ffffff;stroke:#00ff00;stroke-width:0.072;stroke-linecap:butt;stroke-linejoin:round;stroke-miterlimit:9.25;stroke-opacity:1"
       d="m 334.22266,178.61328 c 0,1.33204 -1.08203,2.41016 -2.41016,2.41016 -1.33203,0 -2.41015,-1.07812 -2.41015,-2.41016 0,-1.32812 1.07812,-2.41015 2.41015,-2.41015 1.32813,0 2.41016,1.08203 2.41016,2.41015 z m 0,0"
       id="path18"
       inkscape:connector-curvature="0" />
    <path
       style="fill:#ffffff;stroke:#00ff00;stroke-width:0.072;stroke-linecap:butt;stroke-linejoin:round;stroke-miterlimit:9.25;stroke-opacity:1"
       d="m 334.22266,256.70703 c 0,-1.32812 -1.08203,-2.40625 -2.41016,-2.40625 -1.33203,0 -2.41015,1.07813 -2.41015,2.40625 0,1.33204 1.07812,2.41016 2.41015,2.41016 1.32813,0 2.41016,-1.07812 2.41016,-2.41016 z m 0,0"
       id="path20"
       inkscape:connector-curvature="0" />
  </g>
  <g
     id="g3858"
     transform="translate(-2.0522819,-1.6029323)">
    <path
       style="fill:#ff8080;stroke:#ff0000;stroke-width:0.072;stroke-linecap:butt;stroke-linejoin:miter;stroke-miterlimit:9.25;stroke-opacity:1"
       d="M 443.85938,723.60547 H 421.0586 v -9 h -22.79688 v 9 h -22.80078 v -9 h -22.80078 v 9 h -22.80078 v -9 H 307.0625 v 9 h -22.80078 v -9 h -22.80078 v 9 h -22.80078 v -9 h -22.80078 v 9 H 193.0625 v -9 h -22.80078 v 9 h -22.80078 v -9 h -22.80078 v 24 h 9 v 24 h -9 v 24 h 333 v -24 h 9 v -24 h -9 v -24 h -13.80078 z m 0,0"
       id="path12"
       inkscape:connector-curvature="0" />
    <path
       style="fill:#00ff00;stroke:#00ff00;stroke-width:0.072;stroke-linecap:butt;stroke-linejoin:miter;stroke-miterlimit:9.25;stroke-opacity:1"
       d="M 124.60938,444.55468 70.660163,390.60547 h -9 v 324 h 24 v 8.94921 h 23.999997 v -8.94921 h 23.94923 v -13.19922 h -8.94923 v -22.19922 h 8.94923 v -22.19922 h -8.94923 v -22.20313 h 8.94923 v -22.19921 h -8.94923 v -22.19922 h 8.94923 v -22.19922 h -8.94923 v -22.19922 h 8.94923 v -22.20313 h -8.94923 v -22.19921 h 8.94923 v -22.19922 h -8.94923 z m 0,0"
       id="path14"
       inkscape:connector-curvature="0" />
    <path
       style="fill:#ffff00;stroke:#00ff00;stroke-width:0.072;stroke-linecap:butt;stroke-linejoin:miter;stroke-miterlimit:9.25;stroke-opacity:1"
       d="m 466.66016,444.60547 h -9 v -14.32031 h -324 v 14.32031 h -9 v 34.79687 h 9 v 22.20313 h -9 v 22.19922 h 9 v 22.19922 h -9 v 22.19921 h 9 v 22.19922 h -9 v 22.20313 h 9 v 22.19922 h -9 v 22.19922 h 9 v 22.19921 h -9 v 22.19922 h 9 v 13.20313 h 13.80078 v 9 h 22.79687 v -9 h 22.80078 v 9 h 22.80078 v -9 h 22.80079 v 9 h 22.80078 v -9 h 22.79687 v 9 h 22.80078 v -9 h 22.80078 v 9 h 22.80079 v -9 h 22.80078 v 9 h 22.79687 v -9 h 22.80078 v 9 h 22.80078 v -9 h 13.80079 v -13.20313 h 9 v -22.19922 h -9 v -22.19921 h 9 v -22.19922 h -9 v -22.19922 h 9 v -22.20313 h -9 v -22.19922 h 9 v -22.19921 h -9 v -22.19922 h 9 v -22.19922 h -9 v -22.20313 h 9 z m 0,0"
       id="path28"
       inkscape:connector-curvature="0" />
    <g
       style="fill:#00ff00"
       id="surface50"
       transform="rotate(90,84.644534,461.57031)">
      <path
         id="path2-9"
         d="m 13.679688,16.554688 -0.03516,9 54.035157,54 h 34.800785 v 9 h 22.19922 v -9 h 22.19922 v 9 h 22.19921 v -9 h 22.19922 v 9 h 22.20313 v -9 h 22.19922 v 9 h 22.19922 v -9 h 22.19921 v 9 h 22.19922 v -9 h 22.20313 v 9 h 22.14844 v -24 h -8.95313 v -24 h 8.95313 v -24 z m 0,0"
         style="fill:#00ff00;stroke:#ff0000;stroke-width:0.072;stroke-linecap:butt;stroke-linejoin:miter;stroke-miterlimit:9.25;stroke-opacity:1"
         inkscape:connector-curvature="0" />
    </g>
    <path
       style="fill:#ffffff;stroke:#ff0000;stroke-width:0.072;stroke-linecap:butt;stroke-linejoin:round;stroke-miterlimit:9.25;stroke-opacity:1"
       d="m 300.67578,504.16016 h 34.01563 v 64.48828 h -34.01563 z m 0,0"
       id="path22"
       inkscape:connector-curvature="0" />
    <path
       style="fill:#ffffff;stroke:#ff0000;stroke-width:0.072;stroke-linecap:butt;stroke-linejoin:round;stroke-miterlimit:9.25;stroke-opacity:1"
       d="m 320.09375,497.35547 c 0,1.33203 -1.07813,2.41015 -2.41016,2.41015 -1.32812,0 -2.40625,-1.07812 -2.40625,-2.41015 0,-1.32813 1.07813,-2.41016 2.40625,-2.41016 1.33203,0 2.41016,1.08203 2.41016,2.41016 z m 0,0"
       id="path24"
       inkscape:connector-curvature="0" />
    <path
       style="fill:#ffffff;stroke:#ff0000;stroke-width:0.072;stroke-linecap:butt;stroke-linejoin:round;stroke-miterlimit:9.25;stroke-opacity:1"
       d="m 320.09375,575.44922 c 0,-1.32813 -1.07813,-2.40625 -2.41016,-2.40625 -1.32812,0 -2.40625,1.07812 -2.40625,2.40625 0,1.33203 1.07813,2.41015 2.40625,2.41015 1.33203,0 2.41016,-1.07812 2.41016,-2.41015 z m 0,0"
       id="path26"
       inkscape:connector-curvature="0" />
    <path
       style="fill:#ffffff;stroke:#ff0000;stroke-width:0.072;stroke-linecap:round;stroke-linejoin:round;stroke-miterlimit:9.25;stroke-opacity:1"
       d="m 188.70312,595.15234 c 2.47657,0 4.48047,-2.00781 4.48047,-4.48047 0,-2.47656 -2.0039,-4.48046 -4.48047,-4.48046 -2.47265,0 -4.48046,2.0039 -4.48046,4.48046 0,2.47266 2.00781,4.48047 4.48046,4.48047 z m 0,0"
       id="path30"
       inkscape:connector-curvature="0" />
    <path
       style="fill:#ffffff;stroke:#ff0000;stroke-width:0.072;stroke-linecap:round;stroke-linejoin:round;stroke-miterlimit:9.25;stroke-opacity:1"
       d="m 282.02734,447.98828 c 2.47266,0 4.48047,-2.00391 4.48047,-4.48047 0,-2.47265 -2.00781,-4.48047 -4.48047,-4.48047 -2.47656,0 -4.48047,2.00782 -4.48047,4.48047 0,2.47656 2.00391,4.48047 4.48047,4.48047 z m 0,0"
       id="path32"
       inkscape:connector-curvature="0" />
    <path
       style="fill:#ffffff;stroke:#ff0000;stroke-width:0.072;stroke-linecap:butt;stroke-linejoin:round;stroke-miterlimit:9.25;stroke-opacity:1"
       d="m 272.38672,611.11719 h 14.45703 v 14.45703 h -14.45703 z m 0,0"
       id="path34"
       inkscape:connector-curvature="0" />
    <path
       style="fill:#ffffff;stroke:#ff0000;stroke-width:0.072;stroke-linecap:butt;stroke-linejoin:round;stroke-miterlimit:9.25;stroke-opacity:1"
       d="m 309.28516,606.01562 c 0,1.28907 -1.04688,2.33985 -2.33985,2.33985 -1.28906,0 -2.33984,-1.05078 -2.33984,-2.33985 0,-1.29296 1.05078,-2.33984 2.33984,-2.33984 1.29297,0 2.33985,1.04688 2.33985,2.33984 z m 0,0"
       id="path36"
       inkscape:connector-curvature="0" />
    <path
       style="fill:#ffffff;stroke:#ff0000;stroke-width:0.072;stroke-linecap:butt;stroke-linejoin:round;stroke-miterlimit:9.25;stroke-opacity:1"
       d="m 290.60937,611.11719 h 14.45313 v 14.45703 h -14.45313 z m 0,0"
       id="path38"
       inkscape:connector-curvature="0" />
    <path
       style="fill:#ffffff;stroke:#ff0000;stroke-width:0.072;stroke-linecap:butt;stroke-linejoin:round;stroke-miterlimit:9.25;stroke-opacity:1"
       d="m 308.82812,611.11719 h 14.45704 v 14.45703 h -14.45704 z m 0,0"
       id="path40"
       inkscape:connector-curvature="0" />
    <path
       style="fill:#ffffff;stroke:#ff0000;stroke-width:0.072;stroke-linecap:butt;stroke-linejoin:round;stroke-miterlimit:9.25;stroke-opacity:1"
       d="m 327.05078,611.11719 h 14.45703 v 14.45703 h -14.45703 z m 0,0"
       id="path42"
       inkscape:connector-curvature="0" />
    <path
       style="fill:#ffffff;stroke:#ff0000;stroke-width:0.072;stroke-linecap:butt;stroke-linejoin:round;stroke-miterlimit:9.25;stroke-opacity:1"
       d="m 345.26953,611.11719 h 14.45703 v 14.45703 h -14.45703 z m 0,0"
       id="path44"
       inkscape:connector-curvature="0" />
    <path
       style="fill:#ffffff;stroke:#ff0000;stroke-width:0.072;stroke-linecap:butt;stroke-linejoin:round;stroke-miterlimit:9.25;stroke-opacity:1"
       d="m 363.49219,611.11719 h 14.45703 v 14.45703 h -14.45703 z m 0,0"
       id="path46"
       inkscape:connector-curvature="0" />
    <path
       style="fill:#ffffff;stroke:#ff0000;stroke-width:0.072;stroke-linecap:butt;stroke-linejoin:round;stroke-miterlimit:9.25;stroke-opacity:1"
       d="m 381.71484,611.11719 h 14.45703 v 14.45703 h -14.45703 z m 0,0"
       id="path48"
       inkscape:connector-curvature="0" />
    <path
       style="fill:#ffffff;stroke:#ff0000;stroke-width:0.072;stroke-linecap:butt;stroke-linejoin:round;stroke-miterlimit:9.25;stroke-opacity:1"
       d="m 399.93359,611.11719 h 14.45703 v 14.45703 h -14.45703 z m 0,0"
       id="path50"
       inkscape:connector-curvature="0" />
    <path
       style="fill:#ffffff;stroke:#ff0000;stroke-width:0.072;stroke-linecap:butt;stroke-linejoin:round;stroke-miterlimit:9.25;stroke-opacity:1"
       d="m 382.17187,606.01562 c 0,1.28907 -1.05078,2.33985 -2.33984,2.33985 -1.29297,0 -2.33984,-1.05078 -2.33984,-2.33985 0,-1.29296 1.04687,-2.33984 2.33984,-2.33984 1.28906,0 2.33984,1.04688 2.33984,2.33984 z m 0,0"
       id="path52"
       inkscape:connector-curvature="0" />
    <path
       style="fill:#ffffff;stroke:#ff0000;stroke-width:0.07200001;stroke-linecap:butt;stroke-linejoin:round;stroke-miterlimit:9.25;stroke-opacity:1"
       d="m 182.63282,665.66406 c -3.875,-3.875 -3.87501,-10.15625 -1e-5,-14.03125 3.875,-3.875 10.15626,-3.875 14.03126,0 3.875,3.875 3.87499,10.15625 -1e-5,14.03125 -3.875,3.875 -10.15624,3.875 -14.03124,0 z m 0,0"
       id="path54"
       inkscape:connector-curvature="0" />
    <path
       style="fill:#ffffff;stroke:#ff0000;stroke-width:0.07200001;stroke-linecap:butt;stroke-linejoin:round;stroke-miterlimit:9.25;stroke-opacity:1"
       d="m 178.37109,675.43359 -3.00386,3.00786 -5.51172,-5.51172 3.00386,-3.00786 z m 0,0"
       id="path56"
       inkscape:connector-curvature="0" />
    <path
       style="fill:#ffffff;stroke:#ff0000;stroke-width:0.07200001;stroke-linecap:butt;stroke-linejoin:round;stroke-miterlimit:9.25;stroke-opacity:1"
       d="m 246.51953,665.66407 c -3.875,-3.875 -3.875,-10.15626 0,-14.03126 3.87105,-3.87505 10.15625,-3.87499 14.02734,0 3.875,3.875 3.87501,10.15625 10e-6,14.03125 -3.87105,3.87505 -10.15626,3.875 -14.02735,1e-5 z m 0,0"
       id="path58"
       inkscape:connector-curvature="0" />
    <path
       style="fill:#ffffff;stroke:#ff0000;stroke-width:0.07200001;stroke-linecap:butt;stroke-linejoin:round;stroke-miterlimit:9.25;stroke-opacity:1"
       d="m 242.25781,675.43359 -3.00386,3.00786 -5.51568,-5.51168 3.00781,-3.00781 z m 0,0"
       id="path60"
       inkscape:connector-curvature="0" />
    <path
       style="fill:#ffffff;stroke:#ff0000;stroke-width:0.072;stroke-linecap:butt;stroke-linejoin:round;stroke-miterlimit:9.25;stroke-opacity:1"
       d="m 416.39453,647.91406 h 28.34766 v 7.79297 h -28.34766 z m 0,0"
       id="path62"
       inkscape:connector-curvature="0" />
    <path
       style="fill:#ffffff;stroke:#ff0000;stroke-width:0.072;stroke-linecap:butt;stroke-linejoin:round;stroke-miterlimit:9.25;stroke-opacity:1"
       d="m 416.39453,672.71484 h 28.34766 v 7.79688 h -28.34766 z m 0,0"
       id="path64"
       inkscape:connector-curvature="0" />
    <path
       style="fill:#ffffff;stroke:#ff0000;stroke-width:0.072;stroke-linecap:butt;stroke-linejoin:round;stroke-miterlimit:9.25;stroke-opacity:1"
       d="m 423.33984,610.48047 h 14.45703 v 16.65234 h -14.45703 z m 0,0"
       id="path66"
       inkscape:connector-curvature="0" />
  </g>
</svg>
